<?xml version="1.0" standalone="no"?>
<!DOCTYPE svg PUBLIC "-//W3C//DTD SVG 20010904//EN"
 "http://www.w3.org/TR/2001/REC-SVG-20010904/DTD/svg10.dtd">
<svg version="1.0" xmlns="http://www.w3.org/2000/svg"
 width="377.000000pt" height="103.000000pt" viewBox="0 0 377.000000 103.000000"
 preserveAspectRatio="xMidYMid meet">

<g transform="translate(0.000000,103.000000) scale(0.100000,-0.100000)"
fill="#000000" stroke="none">
<path d="M1484 725 c-14 -14 -32 -42 -41 -63 -8 -20 -27 -57 -41 -81 -14 -25
-27 -52 -28 -60 -1 -9 -9 -34 -18 -56 -21 -54 -20 -71 6 -108 28 -43 47 -57
74 -57 18 0 25 8 33 38 6 20 11 48 11 61 0 23 -1 22 -37 -9 -42 -37 -48 -31
-38 36 4 32 16 54 41 79 19 19 34 40 34 46 0 6 16 47 36 91 20 44 33 86 30 94
-8 21 -34 17 -62 -11z"/>
<path d="M2911 719 c-12 -13 -21 -28 -21 -33 -1 -6 -36 -69 -79 -141 l-78
-130 20 -45 c10 -25 25 -51 33 -59 11 -12 15 -10 25 15 54 130 79 174 100 174
4 0 5 -15 2 -34 -4 -25 1 -43 22 -75 41 -61 75 -53 75 20 0 33 -6 36 -30 14
-16 -15 -18 -12 -23 31 -3 32 -12 52 -26 64 l-22 16 21 46 c23 53 32 149 13
155 -6 2 -21 -6 -32 -18z m-120 -262 c-10 -9 -11 -8 -5 6 3 10 9 15 12 12 3
-3 0 -11 -7 -18z"/>
<path d="M933 691 c-16 -36 -103 -121 -122 -121 -10 0 -25 84 -22 117 3 25
-13 37 -34 26 -8 -5 -51 -65 -96 -133 -45 -69 -86 -126 -90 -128 -25 -10 7
-132 34 -132 8 0 42 53 77 121 l62 120 20 -38 c38 -72 70 -93 83 -54 3 11 19
43 36 73 l30 53 -2 -62 c-2 -34 2 -68 7 -75 5 -7 16 -25 24 -40 7 -16 17 -28
22 -28 4 0 11 0 14 0 6 0 12 309 6 328 -8 24 -32 11 -49 -27z"/>
<path d="M2542 672 c-10 -10 -29 -44 -42 -75 -25 -60 -41 -69 -80 -45 -33 21
-32 2 3 -35 26 -29 32 -43 29 -69 -5 -42 51 -126 72 -109 18 15 19 104 1 97
-9 -3 -11 2 -7 17 7 32 29 54 78 78 24 11 44 25 44 31 0 10 -37 7 -72 -7 -25
-10 -23 18 3 65 32 57 11 92 -29 52z"/>
<path d="M1135 602 c-21 -15 -65 -119 -65 -153 0 -34 33 -92 62 -111 23 -14
65 -8 92 13 31 25 34 54 5 69 -16 9 -27 7 -55 -9 -43 -25 -41 -25 -47 -2 -4
16 2 21 25 26 32 8 61 46 80 109 11 34 10 40 -7 52 -20 15 -73 19 -90 6z m55
-35 c0 -7 -14 -28 -30 -47 -28 -32 -30 -33 -24 -10 13 50 54 94 54 57z"/>
<path d="M2030 543 c-12 -26 -24 -61 -27 -78 -6 -37 20 -105 40 -105 15 0 27
41 27 90 0 18 15 47 40 79 43 54 78 69 66 29 -22 -77 -17 -112 23 -160 33 -41
89 -6 94 58 2 26 -1 29 -30 29 -25 0 -33 4 -33 18 0 10 -7 33 -14 52 -20 46
-61 48 -104 5 -17 -16 -33 -30 -36 -30 -3 0 -3 14 1 30 9 48 -21 37 -47 -17z"/>
<path d="M1713 541 c-9 -11 -20 -18 -25 -15 -5 3 -8 2 -7 -3 1 -4 -5 -25 -14
-45 -10 -21 -17 -44 -17 -52 0 -17 45 -87 63 -98 22 -14 54 -8 72 12 25 27 37
25 63 -10 22 -29 52 -41 52 -19 0 6 -9 22 -20 36 -16 20 -20 41 -20 93 0 64
-2 70 -31 94 -38 32 -92 35 -116 7z m87 -49 c0 -10 -18 -36 -40 -57 -37 -36
-40 -37 -40 -17 0 28 25 78 42 85 25 10 38 7 38 -11z"/>
<path d="M3163 541 c-9 -11 -20 -18 -25 -15 -5 3 -8 2 -7 -3 1 -4 -5 -25 -14
-45 -10 -21 -17 -44 -17 -52 0 -17 45 -87 63 -98 22 -14 54 -8 72 12 25 27 37
25 63 -10 22 -29 52 -41 52 -19 0 6 -9 22 -20 36 -16 20 -20 41 -20 93 0 64
-2 70 -31 94 -38 32 -92 35 -116 7z m87 -49 c0 -10 -18 -36 -40 -57 -37 -36
-40 -37 -40 -17 0 28 25 78 42 85 25 10 38 7 38 -11z"/>
</g>
</svg>
