<?xml version="1.0" standalone="no"?>
<!DOCTYPE svg PUBLIC "-//W3C//DTD SVG 20010904//EN"
 "http://www.w3.org/TR/2001/REC-SVG-20010904/DTD/svg10.dtd">
<svg version="1.0" xmlns="http://www.w3.org/2000/svg"
 width="390.000000pt" height="114.000000pt" viewBox="0 0 390.000000 114.000000"
 preserveAspectRatio="xMidYMid meet">

<g transform="translate(0.000000,114.000000) scale(0.100000,-0.100000)"
fill="#000000" stroke="none">
<path d="M1377 786 c-37 -41 -124 -226 -149 -319 -10 -35 -8 -42 19 -80 17
-23 42 -49 57 -57 23 -13 27 -13 42 2 16 15 39 107 29 116 -2 3 -21 -10 -42
-29 -44 -38 -50 -30 -38 48 5 33 16 54 40 77 20 19 45 60 63 106 17 41 37 91
46 111 8 20 12 39 9 43 -14 14 -55 4 -76 -18z"/>
<path d="M2965 797 c-10 -8 -27 -32 -39 -56 -11 -23 -54 -96 -93 -163 -40 -66
-73 -124 -73 -129 0 -23 51 -119 63 -119 8 0 19 19 27 43 22 74 83 177 105
177 3 0 2 -19 -1 -42 -5 -37 -2 -49 25 -85 47 -65 81 -56 81 23 0 37 -10 43
-30 19 -21 -25 -30 -17 -30 25 0 30 -7 47 -24 65 l-24 24 29 83 c32 92 35 120
16 137 -10 8 -18 7 -32 -2z"/>
<path d="M781 757 c-17 -38 -116 -137 -138 -137 -12 0 -34 101 -27 126 11 43
-45 42 -68 -1 -26 -46 -153 -238 -170 -254 -16 -15 -16 -22 -4 -75 25 -108 43
-97 132 82 31 61 57 112 59 112 2 0 13 -19 25 -42 26 -50 49 -78 64 -78 6 0
30 35 54 78 l43 77 -3 -65 c-1 -36 2 -72 7 -80 5 -8 16 -28 25 -45 8 -16 23
-31 32 -33 16 -3 17 9 17 126 -1 71 2 140 6 152 10 31 -3 87 -21 94 -10 4 -20
-7 -33 -37z"/>
<path d="M2552 743 c-12 -5 -72 -123 -72 -143 0 -14 -46 -13 -70 2 -34 22 -32
1 5 -38 30 -33 35 -44 30 -74 -4 -28 1 -45 25 -83 42 -65 64 -61 68 12 2 37
-1 57 -10 62 -19 12 9 57 47 78 17 9 44 26 60 38 27 20 28 22 9 23 -12 0 -35
-5 -53 -11 -18 -6 -35 -8 -39 -5 -3 4 6 32 22 61 36 68 27 98 -22 78z"/>
<path d="M995 652 c-6 -4 -23 -33 -38 -64 -35 -74 -36 -132 -2 -178 48 -65 94
-71 148 -22 32 30 34 47 8 62 -29 15 -50 12 -78 -10 -28 -22 -43 -19 -43 9 0
12 10 20 29 24 32 7 60 45 84 114 13 38 13 44 -3 58 -17 15 -87 21 -105 7z
m65 -27 c0 -14 -30 -62 -49 -79 -20 -18 -20 -18 -11 14 10 34 36 70 52 70 4 0
8 -2 8 -5z"/>
<path d="M1990 608 c-11 -18 -23 -44 -27 -58 -3 -14 -10 -30 -14 -36 -17 -21
25 -124 51 -124 14 0 18 12 22 65 5 54 12 72 42 114 54 73 106 85 73 16 -23
-48 -20 -72 12 -125 43 -71 95 -63 122 18 10 31 9 37 -6 48 -12 9 -25 10 -41
4 -21 -9 -24 -7 -24 16 0 13 -7 40 -14 59 -13 30 -20 35 -49 35 -24 0 -41 -8
-62 -30 -16 -16 -33 -30 -38 -30 -5 0 -6 14 -2 30 9 42 -19 40 -45 -2z"/>
<path d="M1633 588 c-70 -51 -82 -121 -33 -193 45 -66 59 -67 136 -10 10 7 22
0 45 -28 46 -56 84 -46 39 10 -16 20 -20 41 -20 99 0 66 -3 77 -27 104 -38 43
-96 50 -140 18z m97 -56 c0 -20 -76 -99 -86 -89 -10 10 4 51 27 80 24 31 59
36 59 9z"/>
<path d="M3215 577 c-18 -18 -39 -52 -46 -76 -12 -39 -11 -46 12 -88 29 -54
67 -77 104 -63 14 5 28 17 31 25 10 24 31 17 60 -20 27 -35 54 -46 54 -22 0 7
-7 22 -15 33 -9 12 -14 43 -15 82 0 106 -42 162 -121 162 -22 0 -41 -10 -64
-33z m110 -37 c7 -11 -27 -57 -62 -84 -22 -16 -23 -16 -23 6 0 54 64 112 85
78z"/>
</g>
</svg>
